# Blender v2.91.0 OBJ File: 'Card.blend'
# www.blender.org
mtllib CardMat.mtl
o Table_Circle
v 0.200000 0.000000 -0.300000
v 0.200000 0.000000 0.300000
v 0.258527 0.000000 0.294236
v 0.314805 0.000000 0.277164
v 0.366671 0.000000 0.249441
v 0.412132 0.000000 0.212132
v 0.449441 0.000000 0.166671
v 0.477164 0.000000 0.114805
v 0.494236 0.000000 0.058527
v 0.500000 0.000000 -0.000000
v 0.494236 0.000000 -0.058527
v 0.477164 0.000000 -0.114805
v 0.449441 0.000000 -0.166671
v 0.412132 0.000000 -0.212132
v 0.366671 0.000000 -0.249441
v 0.314805 0.000000 -0.277164
v 0.258527 0.000000 -0.294236
v -0.200000 0.000000 -0.300000
v -0.258527 0.000000 -0.294236
v -0.314805 0.000000 -0.277164
v -0.366671 0.000000 -0.249441
v -0.412132 0.000000 -0.212132
v -0.449441 0.000000 -0.166671
v -0.477164 0.000000 -0.114805
v -0.494236 0.000000 -0.058527
v -0.500000 0.000000 -0.000000
v -0.494236 0.000000 0.058527
v -0.477164 0.000000 0.114805
v -0.449441 0.000000 0.166671
v -0.412132 0.000000 0.212132
v -0.366671 0.000000 0.249441
v -0.314805 0.000000 0.277164
v -0.258527 0.000000 0.294236
v -0.200000 0.000000 0.300000
vt 0.100000 1.100000
vt -0.017054 1.088471
vt -0.129610 1.054327
vt -0.233342 0.998882
vt -0.324264 0.924264
vt -0.398882 0.833342
vt -0.454328 0.729610
vt -0.488471 0.617054
vt -0.500000 0.500000
vt -0.488471 0.382946
vt -0.454328 0.270390
vt -0.398882 0.166658
vt -0.324264 0.075736
vt -0.233342 0.001118
vt -0.129610 -0.054328
vt -0.017054 -0.088471
vt 0.100000 -0.100000
vt 0.900000 -0.100000
vt 1.017055 -0.088471
vt 1.129610 -0.054328
vt 1.233342 0.001118
vt 1.324264 0.075736
vt 1.398882 0.166658
vt 1.454328 0.270390
vt 1.488471 0.382946
vt 1.500000 0.500000
vt 1.488471 0.617055
vt 1.454328 0.729611
vt 1.398881 0.833343
vt 1.324264 0.924264
vt 1.233341 0.998882
vt 1.129609 1.054328
vt 1.017053 1.088471
vt 0.900000 1.100000
vn 0.0000 1.0000 0.0000
usemtl Felt
s off
f 18/1/1 19/2/1 20/3/1 21/4/1 22/5/1 23/6/1 24/7/1 25/8/1 26/9/1 27/10/1 28/11/1 29/12/1 30/13/1 31/14/1 32/15/1 33/16/1 34/17/1 2/18/1 3/19/1 4/20/1 5/21/1 6/22/1 7/23/1 8/24/1 9/25/1 10/26/1 11/27/1 12/28/1 13/29/1 14/30/1 15/31/1 16/32/1 17/33/1 1/34/1
